<svg width="128" height="128" viewBox="0 0 128 128" fill="none" xmlns="http://www.w3.org/2000/svg">
    <g>
        <mask id="mask0_621_269" style="mask-type:luminance" maskUnits="userSpaceOnUse" x="0" y="0"
            width="128" height="128">
            <path d="M128 0H0V128H128V0Z" fill="white" />
        </mask>
        <g>
            <path
                d="M64 128C99.3462 128 128 99.3462 128 64C128 28.6538 99.3462 0 64 0C28.6538 0 0 28.6538 0 64C0 99.3462 28.6538 128 64 128Z"
                fill="black" />
            <path
                d="M11.1367 51.3594L8.28906 54.1016C8.00781 53.1875 7.86719 52.2734 7.86719 51.3594C7.86719 48.4766 8.95703 46.0742 11.1367 44.1523C13.3281 42.2188 16.0645 41.252 19.3457 41.252C19.8027 41.252 20.2305 41.2695 20.6289 41.3047C21.0742 41.3398 21.3555 41.3574 21.4727 41.3574H21.666C21.6191 41.7676 21.5957 42.0605 21.5957 42.2363C21.5957 44.6504 23.1602 47.7207 26.2891 51.4473L27.6074 52.9941L28.7676 54.3828C29.998 55.8477 30.9707 57.1953 31.6855 58.4258L32.8633 48.8809C33.6016 43.0566 34.9551 38.9727 36.9238 36.6289C39.1738 33.957 41.6582 32.6211 44.377 32.6211C45.3965 32.6211 46.4043 32.8086 47.4004 33.1836L44.7988 35.7676C43.7324 35.1465 42.7891 34.8359 41.9688 34.8359C40.1523 34.8359 38.7695 35.6738 37.8203 37.3496C36.8828 39.0137 36.1504 41.9199 35.623 46.0684L33.7598 60.957L31.5449 65.5273C31.0059 63.3711 30.4316 61.7305 29.8223 60.6055C29.2129 59.4805 28 57.8281 26.1836 55.6484L24.8301 54.0137C22.7441 51.4941 21.2676 49.2383 20.4004 47.2461L19.5215 55.1562L19.3105 57.0547C19.123 58.625 18.8184 59.7793 18.3965 60.5176C17.9863 61.2441 17.1602 62.0703 15.918 62.9961L19.8027 63.3477L17.7109 65.3867L10.0645 65L12.332 62.8203L14.2832 62.9961C15.1738 62.3516 15.7891 61.6543 16.1289 60.9043C16.4688 60.1543 16.7383 58.9121 16.9375 57.1777L17.0957 55.6484L18.4492 43.4844H17.623C12.748 43.4844 10.3105 45.0957 10.3105 48.3184C10.3105 49.3262 10.5859 50.3398 11.1367 51.3594ZM42.8301 65.457C40.1934 65.457 38.875 63.7109 38.875 60.2188C38.875 57.4062 39.9062 54.6992 41.9688 52.0977C44.0312 49.4844 46.1699 48.1777 48.3848 48.1777C51.0566 48.1777 52.3926 49.9238 52.3926 53.416C52.3926 56.2402 51.3613 58.9531 49.2988 61.5547C47.2363 64.1562 45.0801 65.457 42.8301 65.457ZM44.957 63.4883C46.3047 63.4883 47.4297 62.7383 48.332 61.2383C49.2461 59.7383 49.7031 57.8691 49.7031 55.6309C49.7031 51.9746 48.5664 50.1465 46.293 50.1465C44.957 50.1465 43.832 50.9023 42.918 52.4141C42.0156 53.9141 41.5645 55.7773 41.5645 58.0039C41.5645 61.6602 42.6953 63.4883 44.957 63.4883ZM60.1094 55.5781C62.7109 50.6445 65.2715 48.1777 67.791 48.1777C68.4473 48.1777 69.1035 48.3301 69.7598 48.6348L67.2812 51.3418C66.9062 51.1309 66.4258 51.0254 65.8398 51.0254C64.6211 51.0254 63.332 52.0156 61.9727 53.9961C60.625 55.9648 59.834 58.0156 59.5996 60.1484L59.125 64.4375L56.5234 65.3164L56.5762 64.7891L56.6992 63.6465L56.8398 62.5039L57.7539 54.1367L57.8594 53.2227C57.9414 52.5312 57.9824 51.9688 57.9824 51.5352C57.9824 50.8203 57.7832 50.4629 57.3848 50.4629C56.4473 50.4629 55.5156 51.4648 54.5898 53.4688C54.2969 53.2461 54.1562 53.0176 54.168 52.7832C54.2031 52.0684 54.8535 51.125 56.1191 49.9531C57.3965 48.7695 58.4043 48.1777 59.1426 48.1777C60.1387 48.1777 60.6367 48.834 60.6367 50.1465C60.6367 50.4629 60.6074 50.8906 60.5488 51.4297L60.4258 52.6602L60.2676 54.1367L60.1094 55.5781ZM80.6758 48.4414L80.8516 46.9297C81.2734 43.1797 82.5508 40.0625 84.6836 37.5781C86.8281 35.0938 89.2949 33.8516 92.084 33.8516C92.752 33.8516 93.3262 33.9102 93.8066 34.0273L91.3105 36.5762C90.7598 36.3887 90.1094 36.2949 89.3594 36.2949C87.6016 36.2949 86.2891 36.9102 85.4219 38.1406C84.5547 39.3711 83.957 41.4688 83.6289 44.4336L81.9941 59.0762L81.8711 60.2012C81.7656 61.1973 81.7129 61.9062 81.7129 62.3281C81.7129 62.9023 81.8652 63.1895 82.1699 63.1895C83.1426 63.1895 84.1211 62.0879 85.1055 59.8848C85.4219 60.0723 85.5801 60.2598 85.5801 60.4473C85.5801 60.8691 85.1055 61.6953 84.1562 62.9258C82.832 64.6133 81.5898 65.457 80.4297 65.457C79.5273 65.457 79.0762 64.8359 79.0762 63.5938C79.0762 63.1367 79.1465 62.2285 79.2871 60.8691L79.4629 59.3223L79.6035 58.0215C78.8066 59.7793 77.5117 61.4609 75.7188 63.0664C73.9375 64.6602 72.4668 65.457 71.3066 65.457C69.6543 65.457 68.8281 64.1621 68.8281 61.5723C68.8281 58.1855 69.9707 55.1445 72.2559 52.4492C74.541 49.7539 77.1191 48.4062 79.9902 48.4062C80.1309 48.4062 80.3594 48.418 80.6758 48.4414ZM80.3945 50.9551C79.4102 50.416 78.5078 50.1465 77.6875 50.1465C75.9531 50.1465 74.5234 51.1309 73.3984 53.0996C72.2734 55.0684 71.7109 57.5703 71.7109 60.6055C71.7109 62.1289 72.1562 62.8906 73.0469 62.8906C74.125 62.8906 75.3906 62.0938 76.8438 60.5C78.7305 58.4492 79.8438 55.9297 80.1836 52.9414L80.3945 50.9551ZM98.0957 59.4102C98.3887 59.6094 98.5352 59.8438 98.5352 60.1133C98.5352 60.4766 98.1602 61.0977 97.4102 61.9766C95.4062 64.2969 93.4258 65.457 91.4688 65.457C90.2734 65.457 89.2891 64.9824 88.5156 64.0332C87.7422 63.084 87.3555 61.8711 87.3555 60.3945C87.3555 57.7227 88.3633 55.0215 90.3789 52.291C92.4062 49.5488 94.4102 48.1777 96.3906 48.1777C97.8203 48.1777 98.5352 48.9453 98.5352 50.4805C98.5352 52.2031 97.6973 53.8848 96.0215 55.5254C94.3574 57.166 92.3242 58.3086 89.9219 58.9531C90.1562 61.7773 91.2695 63.1895 93.2617 63.1895C95.2305 63.1895 96.8418 61.9297 98.0957 59.4102ZM89.9922 56.8086C90.332 56.9258 90.6426 56.9844 90.9238 56.9844C92.377 56.9844 93.6484 56.5391 94.7383 55.6484C95.8281 54.7578 96.373 53.7148 96.373 52.5195C96.373 51.1484 95.6758 50.4629 94.2812 50.4629C93.2734 50.4629 92.3594 51.0664 91.5391 52.2734C90.7305 53.4688 90.2148 54.9805 89.9922 56.8086ZM105.549 64.3848L102.93 65.457L102.982 64.9648L103.123 63.6641L103.264 62.4336L104.178 54.2773L104.283 53.3457C104.354 52.6191 104.389 52.0332 104.389 51.5879C104.389 50.8379 104.201 50.4629 103.826 50.4629C102.947 50.4629 102.004 51.459 100.996 53.4512C100.727 53.2285 100.592 53.0352 100.592 52.8711C100.592 52.168 101.23 51.2129 102.508 50.0059C103.797 48.7871 104.811 48.1777 105.549 48.1777C106.557 48.1777 107.061 48.8223 107.061 50.1113C107.061 50.4395 107.031 50.8789 106.973 51.4297L106.832 52.8535L106.691 54.0488L106.551 55.2969C107.934 53.2344 109.445 51.5352 111.086 50.1992C112.738 48.8516 114.145 48.1777 115.305 48.1777C116.441 48.1777 117.01 48.9688 117.01 50.5508C117.01 51.0312 116.945 51.752 116.816 52.7129L115.867 59.2695C115.68 60.582 115.586 61.6191 115.586 62.3809C115.586 62.9902 115.75 63.2949 116.078 63.2949C116.887 63.2949 117.883 62.2168 119.066 60.0605C119.348 60.2363 119.488 60.418 119.488 60.6055C119.488 61.3672 118.832 62.3691 117.52 63.6113C116.219 64.8418 115.158 65.457 114.338 65.457C113.424 65.457 112.967 64.8008 112.967 63.4883C112.967 62.5273 113.09 61.1973 113.336 59.498L113.951 55.2441C114.15 53.8613 114.25 52.7656 114.25 51.957C114.25 51.0312 113.928 50.5684 113.283 50.5684C111.783 50.5684 110.26 51.5879 108.713 53.627C107.178 55.6543 106.281 57.834 106.023 60.166L105.549 64.3848ZM8.5 93.3516C8.59961 92.6484 8.64941 91.5967 8.64941 90.1963C8.64941 87.4072 8.52344 85.3682 8.27148 84.0791C8.02539 82.79 7.62988 82.1455 7.08496 82.1455C6.7334 82.1455 6.39355 82.3301 6.06543 82.6992C5.7373 83.0684 5.53223 83.4961 5.4502 83.9824C5.20996 83.9297 5.08984 83.8242 5.08984 83.666C5.08984 83.0684 5.37695 82.4473 5.95117 81.8027C6.53125 81.1523 7.08789 80.8271 7.62109 80.8271C8.16016 80.8271 8.56738 81.0352 8.84277 81.4512C9.12402 81.8613 9.36719 82.6201 9.57227 83.7275C9.88281 85.374 10.0381 87.2725 10.0381 89.4229L10.0469 90.0381L11.3125 87.5771L11.875 86.4961L12.6924 84.8877C13.1611 83.9736 13.4746 83.2412 13.6328 82.6904L14.9775 81.4072C14.9365 81.8525 14.916 82.2334 14.916 82.5498C14.916 83.5459 15.1182 85.1367 15.5225 87.3223L15.6279 87.8936L15.8037 88.8076C15.9209 89.4346 16.0381 90.1113 16.1553 90.8379C16.3252 90.5215 16.4307 90.3164 16.4717 90.2227L17.1836 88.7461L18.0449 86.9971C18.7598 85.5146 19.1172 84.3574 19.1172 83.5254C19.1172 82.9629 18.8857 82.5352 18.4229 82.2422L19.7148 80.8271C20.3125 81.2197 20.6113 81.6914 20.6113 82.2422C20.6113 82.9746 19.9961 84.5508 18.7656 86.9707C18.5605 87.375 18.3145 87.8672 18.0273 88.4473L17.6494 89.2207L17.2627 90.1084L16.7529 91.251C16.7119 91.3506 16.6182 91.585 16.4717 91.9541L15.1182 93.3867L15.083 93C14.9658 91.7695 14.7461 90.3135 14.4238 88.6318L14.3184 88.1045L14.1689 87.3223C14.0576 86.7539 13.9844 86.3379 13.9492 86.0742L13.7822 84.8701C13.7705 84.7822 13.7412 84.5771 13.6943 84.2549L12.5078 86.6104L12.0244 87.5684C11.1396 89.3027 10.4629 90.7471 9.99414 91.9014L8.5 93.3516ZM25.4805 90.4424C25.6387 90.5361 25.7178 90.627 25.7178 90.7148C25.7178 90.9258 25.4629 91.3418 24.9531 91.9629C24.2676 92.8066 23.6318 93.2285 23.0459 93.2285C22.6182 93.2285 22.4043 92.9443 22.4043 92.376C22.4043 92.1357 22.4922 91.3975 22.668 90.1611L23.0107 87.7705L23.0986 87.1641L23.1689 86.6807C23.1982 86.4756 23.2129 86.3027 23.2129 86.1621C23.2129 85.8691 23.1309 85.7227 22.9668 85.7227C22.5098 85.7227 22.0176 86.2266 21.4902 87.2344C21.3789 87.1348 21.3232 87.0352 21.3232 86.9355C21.3232 86.5781 21.6514 86.0977 22.3076 85.4941C22.9697 84.8906 23.4971 84.5889 23.8896 84.5889C24.3291 84.5889 24.5488 84.8936 24.5488 85.5029C24.5488 85.6201 24.5254 85.8604 24.4785 86.2236L24.3994 86.8125C24.3936 86.8594 24.3613 87.0967 24.3027 87.5244L23.9424 90.0381L23.8545 90.6006C23.7783 91.1572 23.7402 91.5293 23.7402 91.7168C23.7402 91.9688 23.8135 92.0947 23.96 92.0947C24.4521 92.0947 24.959 91.5439 25.4805 90.4424ZM23.7139 83.4551L24.4521 81.6357C25.1084 81.3662 25.6475 80.9941 26.0693 80.5195C26.1279 80.6016 26.1572 80.6865 26.1572 80.7744C26.1572 81.5596 25.3428 82.4531 23.7139 83.4551ZM28.917 92.6924L27.6074 93.2285L27.6338 92.9824L27.7041 92.332L27.7744 91.7168L28.2314 87.6387L28.2842 87.1729C28.3193 86.8096 28.3369 86.5166 28.3369 86.2939C28.3369 85.9189 28.2432 85.7314 28.0557 85.7314C27.6162 85.7314 27.1445 86.2295 26.6406 87.2256C26.5059 87.1143 26.4385 87.0176 26.4385 86.9355C26.4385 86.584 26.7578 86.1064 27.3965 85.5029C28.041 84.8936 28.5479 84.5889 28.917 84.5889C29.4209 84.5889 29.6729 84.9111 29.6729 85.5557C29.6729 85.7197 29.6582 85.9395 29.6289 86.2148L29.5586 86.9268L29.4883 87.5244L29.418 88.1484C30.1094 87.1172 30.8652 86.2676 31.6855 85.5996C32.5117 84.9258 33.2148 84.5889 33.7949 84.5889C34.3633 84.5889 34.6475 84.9844 34.6475 85.7754C34.6475 86.0156 34.6152 86.376 34.5508 86.8564L34.0762 90.1348C33.9824 90.791 33.9355 91.3096 33.9355 91.6904C33.9355 91.9951 34.0176 92.1475 34.1816 92.1475C34.5859 92.1475 35.084 91.6084 35.6758 90.5303C35.8164 90.6182 35.8867 90.709 35.8867 90.8027C35.8867 91.1836 35.5586 91.6846 34.9023 92.3057C34.252 92.9209 33.7217 93.2285 33.3115 93.2285C32.8545 93.2285 32.626 92.9004 32.626 92.2441C32.626 91.7637 32.6875 91.0986 32.8105 90.249L33.1182 88.1221C33.2178 87.4307 33.2676 86.8828 33.2676 86.4785C33.2676 86.0156 33.1064 85.7842 32.7842 85.7842C32.0342 85.7842 31.2725 86.2939 30.499 87.3135C29.7314 88.3271 29.2832 89.417 29.1543 90.583L28.917 92.6924ZM42.584 84.7207L42.6719 83.9648C42.8828 82.0898 43.5215 80.5312 44.5879 79.2891C45.6602 78.0469 46.8936 77.4258 48.2881 77.4258C48.6221 77.4258 48.9092 77.4551 49.1494 77.5137L47.9014 78.7881C47.626 78.6943 47.3008 78.6475 46.9258 78.6475C46.0469 78.6475 45.3906 78.9551 44.957 79.5703C44.5234 80.1855 44.2246 81.2344 44.0605 82.7168L43.2432 90.0381L43.1816 90.6006C43.1289 91.0986 43.1025 91.4531 43.1025 91.6641C43.1025 91.9512 43.1787 92.0947 43.3311 92.0947C43.8174 92.0947 44.3066 91.5439 44.7988 90.4424C44.957 90.5361 45.0361 90.6299 45.0361 90.7236C45.0361 90.9346 44.7988 91.3477 44.3242 91.9629C43.6621 92.8066 43.041 93.2285 42.4609 93.2285C42.0098 93.2285 41.7842 92.918 41.7842 92.2969C41.7842 92.0684 41.8193 91.6143 41.8896 90.9346L41.9775 90.1611L42.0479 89.5107C41.6494 90.3896 41.002 91.2305 40.1055 92.0332C39.2148 92.8301 38.4795 93.2285 37.8994 93.2285C37.0732 93.2285 36.6602 92.5811 36.6602 91.2861C36.6602 89.5928 37.2314 88.0723 38.374 86.7246C39.5166 85.377 40.8057 84.7031 42.2412 84.7031C42.3115 84.7031 42.4258 84.709 42.584 84.7207ZM42.4434 85.9775C41.9512 85.708 41.5 85.5732 41.0898 85.5732C40.2227 85.5732 39.5078 86.0654 38.9453 87.0498C38.3828 88.0342 38.1016 89.2852 38.1016 90.8027C38.1016 91.5645 38.3242 91.9453 38.7695 91.9453C39.3086 91.9453 39.9414 91.5469 40.668 90.75C41.6113 89.7246 42.168 88.4648 42.3379 86.9707L42.4434 85.9775ZM52.7793 86.2324L51.3555 87.6035C51.2148 87.1348 51.1445 86.6895 51.1445 86.2676C51.1445 84.627 51.8271 83.2998 53.1924 82.2861C54.1885 81.5479 55.6064 81.1787 57.4463 81.1787H60.3467C61.4365 81.1787 62.5498 81.1406 63.6865 81.0645L62.9746 82.8662L62.834 83.1914C62.6875 83.5371 62.5 83.71 62.2715 83.71C62.2363 83.71 62.1953 83.707 62.1484 83.7012C62.2129 83.4082 62.2451 83.1738 62.2451 82.998C62.2451 82.6113 62.04 82.3711 61.6299 82.2773C61.2256 82.1777 60.2119 82.1279 58.5889 82.1279H57.7363L57.2705 86.3818H58.9844C59.9746 86.3818 60.8535 86.335 61.6211 86.2412C60.9531 87.0439 60.2793 87.4453 59.5996 87.4453C59.2188 87.4453 58.6797 87.416 57.9824 87.3574C57.6953 87.3398 57.4932 87.3311 57.376 87.3311H57.165L57.0771 88.0957C56.9541 89.209 56.7578 90 56.4883 90.4688C56.2246 90.9375 55.7031 91.4092 54.9238 91.8838L56.8486 92.0332L57.6309 92.1035C58.1816 92.1445 58.8408 92.165 59.6084 92.165C60.9033 92.165 61.9814 91.7461 62.8428 90.9082C62.9424 91.0195 62.9922 91.125 62.9922 91.2246C62.9922 91.3887 62.6787 91.7256 62.0518 92.2354C61.1377 92.9795 60.1387 93.3516 59.0547 93.3516C58.0527 93.3516 56.6113 93.2666 54.7305 93.0967L51.4521 92.7979C51.3408 92.792 50.9453 92.7686 50.2656 92.7275L51.874 91.5146C52.4541 91.6143 53.1514 91.7021 53.9658 91.7783C54.54 91.5557 54.9268 91.2393 55.126 90.8291C55.3252 90.4189 55.4922 89.5928 55.627 88.3506L56.3213 82.1279H56.0137C54.877 82.1279 53.9863 82.3623 53.3418 82.8311C52.6973 83.2939 52.375 83.9355 52.375 84.7559C52.375 85.2305 52.5098 85.7227 52.7793 86.2324ZM66.499 92.6924L65.1895 93.2285L65.2158 92.9824L65.2861 92.332L65.3564 91.7168L65.8135 87.6387L65.8662 87.1729C65.9014 86.8096 65.9189 86.5166 65.9189 86.2939C65.9189 85.9189 65.8252 85.7314 65.6377 85.7314C65.1982 85.7314 64.7266 86.2295 64.2227 87.2256C64.0879 87.1143 64.0205 87.0176 64.0205 86.9355C64.0205 86.584 64.3398 86.1064 64.9785 85.5029C65.623 84.8936 66.1299 84.5889 66.499 84.5889C67.0029 84.5889 67.2549 84.9111 67.2549 85.5557C67.2549 85.7197 67.2402 85.9395 67.2109 86.2148L67.1406 86.9268L67.0703 87.5244L67 88.1484C67.6914 87.1172 68.4473 86.2676 69.2676 85.5996C70.0938 84.9258 70.7969 84.5889 71.377 84.5889C71.9453 84.5889 72.2295 84.9844 72.2295 85.7754C72.2295 86.0156 72.1973 86.376 72.1328 86.8564L71.6582 90.1348C71.5645 90.791 71.5176 91.3096 71.5176 91.6904C71.5176 91.9951 71.5996 92.1475 71.7637 92.1475C72.168 92.1475 72.666 91.6084 73.2578 90.5303C73.3984 90.6182 73.4688 90.709 73.4688 90.8027C73.4688 91.1836 73.1406 91.6846 72.4844 92.3057C71.834 92.9209 71.3037 93.2285 70.8936 93.2285C70.4365 93.2285 70.208 92.9004 70.208 92.2441C70.208 91.7637 70.2695 91.0986 70.3926 90.249L70.7002 88.1221C70.7998 87.4307 70.8496 86.8828 70.8496 86.4785C70.8496 86.0156 70.6885 85.7842 70.3662 85.7842C69.6162 85.7842 68.8545 86.2939 68.0811 87.3135C67.3135 88.3271 66.8652 89.417 66.7363 90.583L66.499 92.6924ZM73.7324 92.7539L74.9453 91.7607C75.4023 92.2471 75.9766 92.4902 76.668 92.4902C77.5117 92.4902 77.9336 92.083 77.9336 91.2686C77.9336 90.8174 77.5469 90.1875 76.7734 89.3789L76.2725 88.8604C75.54 88.0928 75.1738 87.4717 75.1738 86.9971C75.1738 86.3174 75.4668 85.7461 76.0527 85.2832C76.6445 84.8203 77.3711 84.5889 78.2324 84.5889C78.7012 84.5889 79.2139 84.6768 79.7705 84.8525L78.7158 85.8281C78.2705 85.4941 77.7754 85.3271 77.2305 85.3271C76.5918 85.3271 76.2725 85.5938 76.2725 86.127C76.2725 86.5078 76.627 87.0674 77.3359 87.8057L77.8809 88.3857C78.6895 89.2295 79.0938 89.9092 79.0938 90.4248C79.0938 91.1631 78.7393 91.8164 78.0303 92.3848C77.3213 92.9473 76.5039 93.2285 75.5781 93.2285C74.9219 93.2285 74.3066 93.0703 73.7324 92.7539ZM86.0283 90.2051C86.1748 90.3047 86.248 90.4219 86.248 90.5566C86.248 90.7383 86.0605 91.0488 85.6855 91.4883C84.6836 92.6484 83.6934 93.2285 82.7148 93.2285C82.1172 93.2285 81.625 92.9912 81.2383 92.5166C80.8516 92.042 80.6582 91.4355 80.6582 90.6973C80.6582 89.3613 81.1621 88.0107 82.1699 86.6455C83.1836 85.2744 84.1855 84.5889 85.1758 84.5889C85.8906 84.5889 86.248 84.9727 86.248 85.7402C86.248 86.6016 85.8291 87.4424 84.9912 88.2627C84.1592 89.083 83.1426 89.6543 81.9414 89.9766C82.0586 91.3887 82.6152 92.0947 83.6113 92.0947C84.5957 92.0947 85.4014 91.4648 86.0283 90.2051ZM81.9766 88.9043C82.1465 88.9629 82.3018 88.9922 82.4424 88.9922C83.1689 88.9922 83.8047 88.7695 84.3496 88.3242C84.8945 87.8789 85.167 87.3574 85.167 86.7598C85.167 86.0742 84.8184 85.7314 84.1211 85.7314C83.6172 85.7314 83.1602 86.0332 82.75 86.6367C82.3457 87.2344 82.0879 87.9902 81.9766 88.9043ZM94.2461 92.6924L92.9453 93.2285L92.9717 92.9824L93.042 92.332L93.1035 91.7168L93.543 87.7705L93.6045 87.3223C93.6279 87.0879 93.6396 86.8594 93.6396 86.6367C93.6396 86.0684 93.4668 85.7842 93.1211 85.7842C92.582 85.7842 91.9521 86.335 91.2314 87.4365C90.5166 88.5381 90.1035 89.5869 89.9922 90.583L89.7637 92.6924L88.4541 93.2285L88.4805 92.9824L88.5508 92.332L88.6211 91.7168L89.0693 87.6387L89.1221 87.1729C89.1631 86.8096 89.1836 86.5166 89.1836 86.2939C89.1836 85.9189 89.0898 85.7314 88.9023 85.7314C88.4629 85.7314 87.9883 86.2295 87.4785 87.2256C87.3438 87.1143 87.2764 87.0176 87.2764 86.9355C87.2764 86.584 87.5957 86.1064 88.2344 85.5029C88.8789 84.8936 89.3887 84.5889 89.7637 84.5889C90.2676 84.5889 90.5195 84.9111 90.5195 85.5557C90.5195 85.7197 90.5049 85.9395 90.4756 86.2148L90.4053 86.9268L90.335 87.5244L90.2646 88.1484L90.5107 87.7617C91.8232 85.6465 93.0449 84.5889 94.1758 84.5889C94.7207 84.5889 94.9932 84.9814 94.9932 85.7666C94.9932 85.9014 94.9697 86.1855 94.9229 86.6191L94.835 87.4277L94.7119 88.5264C95.2568 87.3955 95.9014 86.458 96.6455 85.7139C97.3955 84.9639 98.0635 84.5889 98.6494 84.5889C99.2295 84.5889 99.5195 84.9639 99.5195 85.7139C99.5195 86.0361 99.4873 86.4199 99.4229 86.8652L98.957 90.126C98.8574 90.7998 98.8076 91.3213 98.8076 91.6904C98.8076 92.001 98.8926 92.1562 99.0625 92.1562C99.2617 92.1562 99.5107 91.9893 99.8096 91.6553C100.114 91.3213 100.357 90.9434 100.539 90.5215C100.697 90.627 100.776 90.7236 100.776 90.8115C100.776 91.1807 100.448 91.6758 99.792 92.2969C99.1416 92.918 98.623 93.2285 98.2363 93.2285C97.7383 93.2285 97.4893 92.8945 97.4893 92.2266C97.4893 91.8047 97.5537 91.1514 97.6826 90.2666L97.9902 88.1484C98.002 88.0723 98.0225 87.9053 98.0518 87.6475C98.0635 87.542 98.084 87.3633 98.1133 87.1113C98.1426 86.8594 98.1572 86.666 98.1572 86.5312C98.1572 86.0332 97.9932 85.7842 97.665 85.7842C97.1143 85.7842 96.4727 86.335 95.7402 87.4365C95.0137 88.5381 94.5947 89.5869 94.4834 90.583L94.2461 92.6924ZM103.844 88.3154C104.477 87.2139 105.177 86.3174 105.944 85.626C106.712 84.9346 107.389 84.5889 107.975 84.5889C108.818 84.5889 109.24 85.3066 109.24 86.7422C109.24 88.5 108.681 90.0029 107.562 91.251C106.448 92.4932 105.104 93.1143 103.527 93.1143C103.328 93.1143 103.152 93.1055 103 93.0879L102.288 93.0176C102.247 93.0176 102.136 93.0117 101.954 93C102.083 92.5547 102.174 92.0889 102.227 91.6025L103.07 84.0176C103.275 82.1953 103.949 80.6426 105.092 79.3594C106.234 78.0762 107.512 77.4346 108.924 77.4346C109.217 77.4346 109.498 77.4668 109.768 77.5312L108.476 78.7969C108.142 78.6973 107.828 78.6475 107.535 78.6475C105.789 78.6475 104.767 80.0068 104.468 82.7256L103.844 88.3154ZM103.457 91.7959C104.002 92.0947 104.547 92.2441 105.092 92.2441C105.9 92.2441 106.557 91.7783 107.061 90.8467C107.564 89.9092 107.816 88.6904 107.816 87.1904C107.816 86.3174 107.579 85.8809 107.104 85.8809C106.577 85.8809 105.959 86.2764 105.25 87.0674C104.289 88.1396 103.727 89.3994 103.562 90.8467L103.457 91.7959ZM113.89 90.416C114.06 90.498 114.145 90.6035 114.145 90.7324C114.145 91.1543 113.828 91.6758 113.195 92.2969C112.568 92.918 112.041 93.2285 111.613 93.2285C111.127 93.2285 110.884 92.877 110.884 92.1738C110.884 91.7461 110.91 91.3096 110.963 90.8643L111.06 90.082L111.736 83.9648C111.947 82.1016 112.586 80.5459 113.652 79.2979C114.725 78.0498 115.958 77.4258 117.353 77.4258C117.692 77.4258 117.979 77.4551 118.214 77.5137L116.966 78.7881C116.69 78.6943 116.368 78.6475 115.999 78.6475C115.12 78.6475 114.461 78.958 114.021 79.5791C113.588 80.1943 113.289 81.2402 113.125 82.7168L112.308 90.082C112.243 90.6504 112.211 91.0576 112.211 91.3037C112.211 91.8311 112.302 92.0947 112.483 92.0947C112.7 92.0947 112.955 91.9219 113.248 91.5762C113.541 91.2246 113.755 90.8379 113.89 90.416ZM120.464 90.2051C120.61 90.3047 120.684 90.4219 120.684 90.5566C120.684 90.7383 120.496 91.0488 120.121 91.4883C119.119 92.6484 118.129 93.2285 117.15 93.2285C116.553 93.2285 116.061 92.9912 115.674 92.5166C115.287 92.042 115.094 91.4355 115.094 90.6973C115.094 89.3613 115.598 88.0107 116.605 86.6455C117.619 85.2744 118.621 84.5889 119.611 84.5889C120.326 84.5889 120.684 84.9727 120.684 85.7402C120.684 86.6016 120.265 87.4424 119.427 88.2627C118.595 89.083 117.578 89.6543 116.377 89.9766C116.494 91.3887 117.051 92.0947 118.047 92.0947C119.031 92.0947 119.837 91.4648 120.464 90.2051ZM116.412 88.9043C116.582 88.9629 116.737 88.9922 116.878 88.9922C117.604 88.9922 118.24 88.7695 118.785 88.3242C119.33 87.8789 119.603 87.3574 119.603 86.7598C119.603 86.0742 119.254 85.7314 118.557 85.7314C118.053 85.7314 117.596 86.0332 117.186 86.6367C116.781 87.2344 116.523 87.9902 116.412 88.9043Z"
                fill="white" />
        </g>
    </g>
    <style>
        @media (prefers-color-scheme:dark){:root{filter:invert(100%)}}
    </style>
</svg>
